<svg xmlns="http://www.w3.org/2000/svg" viewBox="0 0 333333 199007" shape-rendering="geometricPrecision" text-rendering="geometricPrecision" image-rendering="optimizeQuality" fill-rule="evenodd" clip-rule="evenodd"><path d="M197991 54837c-4872-5548-13680-7930-24941-7930h-32687c-2302 0-4274 1663-4622 3946l-13622 86322c-268 1703 1047 3248 2776 3248h20195l5076-32153-163 1006c347-2281 2300-3946 4601-3946l9590 4c18842 0 33587-7639 37907-29786 124-658 243-1295 328-1914 1274-8177 0-13764-4438-18794v-2z" fill="#003087"/><path d="M208161 78610c-4911 21800-20072 33304-43967 33304l-7948-2-5528 35091-6661 4-347 2259c-225 1498 926 2834 2425 2834h17015c2011 0 3722-1459 4050-3451l163-861 3209-20321 204-1110c307-1992 2032-3452 4050-3452l2523-1c16473 0 29378-6698 33160-26052 1421-7357 881-13600-2341-18242h-6z" fill="#009cde"/><path d="M31366 0h270600c8631 0 16474 3528 22156 9210 5683 5683 9211 13526 9211 22156v136275c0 8629-3529 16472-9211 22155-5683 5682-13526 9211-22155 9211H31367c-8629 0-16473-3528-22156-9211C3529 184114 1 176272 1 167641V31366c0-8631 3528-16474 9210-22156S22737 0 31368 0zm270600 10811H31366c-5647 0-10785 2315-14513 6043s-6043 8866-6043 14513v136275c0 5646 2315 10784 6043 14512 3729 3729 8867 6044 14513 6044h270600c5645 0 10783-2315 14512-6044 3728-3729 6044-8867 6044-14511V31368c0-5645-2315-10784-6043-14513-3728-3728-8867-6043-14513-6043z" fill="gray" fill-rule="nonzero"/></svg>