<svg width="24" height="24" viewBox="0 0 24 24" fill="none" xmlns="http://www.w3.org/2000/svg">
<path opacity="0.4" d="M12 22C17.5228 22 22 17.5228 22 12C22 6.47715 17.5228 2 12 2C6.47715 2 2 6.47715 2 12C2 17.5228 6.47715 22 12 22Z" fill="#EA4545"/>
<path d="M13.0601 12.0001L15.3601 9.70011C15.6501 9.41011 15.6501 8.93011 15.3601 8.64011C15.0701 8.35011 14.5901 8.35011 14.3001 8.64011L12.0001 10.9401L9.70011 8.64011C9.41011 8.35011 8.93011 8.35011 8.64011 8.64011C8.35011 8.93011 8.35011 9.41011 8.64011 9.70011L10.9401 12.0001L8.64011 14.3001C8.35011 14.5901 8.35011 15.0701 8.64011 15.3601C8.79011 15.5101 8.98011 15.5801 9.17011 15.5801C9.36011 15.5801 9.55011 15.5101 9.70011 15.3601L12.0001 13.0601L14.3001 15.3601C14.4501 15.5101 14.6401 15.5801 14.8301 15.5801C15.0201 15.5801 15.2101 15.5101 15.3601 15.3601C15.6501 15.0701 15.6501 14.5901 15.3601 14.3001L13.0601 12.0001Z" fill="#EA4545"/>
</svg>
