<svg width="151" height="282" viewBox="0 0 151 282" fill="none" xmlns="http://www.w3.org/2000/svg">
<path d="M49 94.5L46 92L41 59L104.5 57C104.167 65.5 103.5 83.8 103.5 89C99.5 94.5 87 96.5 69 95C61.8 96.2 52.6667 93.5 49 92V94.5Z" fill="#0C0118"/>
<path d="M60.5 106.038V89.0376H87V106.038L97 110.538L68 135.038L51 110.538L60.5 106.038Z" fill="#FEA19A"/>
<path d="M60.5 104V89L87 90C86.5 92.1667 87 96 87 98C85.4 98.8 68.6667 102.333 60.5 104Z" fill="#FF968F"/>
<g filter="url(#filter0_d_1_2)">
<path d="M73.5 94.5747C53.1 94.1747 44.6667 73.7413 43 63.5747C43.8333 54.0747 45.6 33.9747 46 29.5747C46.5 24.0747 54.5 18.0747 65 18.0747C76.5 17.0747 93.5 36.5747 97.5 43.5747C100.7 49.1747 102.167 63.908 102.5 70.5747H100C99 73.5747 96.3 80.7747 93.5 85.5747C87.5 93.5747 78.5 94.5747 73.5 94.5747Z" fill="#FEA19A"/>
</g>
<path d="M57.5 49.0376C56.5 49.0376 52.6667 50.871 51 52.0376C51.5 48.0376 55.5 46.0376 58.5 46.0376C62.5 46.0375 65 50.5377 64.5 50.5377C64 50.5376 60.5 49.0376 57.5 49.0376Z" fill="#0C0005"/>
<path d="M57.5 55.5376C57.1 56.3376 55.5 59.2837 55 60.7837C55.1667 58.7838 56 54.2836 58 52.2835C60.4 50.6835 62 57.2834 62.5 60.7833C62.3333 60.1167 61.3 58.4377 60.5 56.0376C59 53.0376 58 54.5376 57.5 55.5376Z" fill="#3B0000"/>
<path d="M85.5 48.0376C84.5 48.0376 80.6667 49.871 79 51.0376C79.5 47.0376 83.5 45.0376 86.5 45.0376C90.5 45.0375 93 49.5377 92.5 49.5377C92 49.5376 88.5 48.0376 85.5 48.0376Z" fill="#0C0005"/>
<path d="M85.5 54.5376C85.1 55.3376 83.5 58.2837 83 59.7837C83.1667 57.7838 84 53.2836 86 51.2835C88.4 49.6835 90 56.2834 90.5 59.7833C90.3333 59.1167 89.3 57.4377 88.5 55.0376C87 52.0376 86 53.5376 85.5 54.5376Z" fill="#3B0000"/>
<path d="M44.5 99.6893L40 99.3414L42 96.6892L39 98.6892L32 96.3414L34 93.6892H29.5L23 89.8414L28.5 80.6892C27.6666 67.5225 26.2 40.1892 27 36.1891C28 31.1891 28.3376 23.1618 35.5 17.6891C42.5 12.3405 56 14.6891 56.5 15.1892C62.5 -7.15857 81 -0.462402 92.5 7.68919C108.409 18.9658 112.167 33.0225 113 40.6892C113.667 51.5225 114.8 74.7892 114 81.1892C112.4 89.9892 104.333 95.1892 100.5 96.6892L99 71.1892L102 70.1892C99.2 58.5892 92.5 53.0225 89.5 51.6892C92 54.8559 97.2 61.7892 98 64.1892C96.5 63.1892 88.5 54.1892 81 41.1892C73.5 28.1892 69 24.1893 66 23.1893C63 22.1893 56 25.1893 52 27.6893C46.4 32.4893 46.3333 74.356 47 94.6893L44.5 99.6893Z" fill="#0F1342"/>
<path d="M36.0223 53.0378C35.6223 48.2378 41 45.0376 43.0469 46.0378C44.5 51.0378 43.6223 61.1378 44.0223 65.5378C37 64.5376 36.5223 59.0378 36.0223 53.0378Z" fill="#F39095"/>
<g filter="url(#filter1_d_1_2)">
<path d="M38.5 52.0374C38.5 50.3939 41.0223 48.5379 42.0223 51.6817C42.8532 54.2938 42.5223 58.1816 42.5223 59.6816C42.3556 60.3483 41 62.8942 40 61.0378" stroke="#E4676D"/>
</g>
<path d="M77 67.5376L72 56.0376L79.5 69.0376L74.5 70.5376L77 67.5376Z" fill="#C05A56"/>
<path d="M70.5 80.5376C70.5 80.5376 67.1667 79.5376 66 79.0376C66 79.3709 66.7578 80.4569 70 81.5376C73 82.5376 76.5 82.5376 78.5 81.5376L80.5 80.0376L83 78.0376C82.5 78.2043 79.397 79.7386 78.5 80.0376C75.5 81.0376 70.5 80.5376 70.5 80.5376Z" fill="#D26A67"/>
<g filter="url(#filter2_d_1_2)">
<path d="M4 274L15.5 132C21.3333 126.5 34.6 114.8 41 112C43.4 115.2 57.3333 148.333 64 164.5H83L106 114C112.167 117 125.3 123.9 128.5 127.5C130.5 134 150 148.5 146 225C139.875 227.68 133.563 229.726 127.275 231.269L131 274H4Z" fill="white"/>
</g>
<path d="M26 160.5L14 134L1 274H26C26 266.5 26.5 248.7 28.5 237.5C31 223.5 31 205.5 26 190.5C11.2 178.5 19.8333 165.5 26 160.5Z" fill="#EAEAEA"/>
<path d="M122.5 189L37 274H131.5L122.5 189Z" fill="#EAEAEA"/>
<path d="M113 117.5L106 114L77.5 176L100 163.5L91.5 152.5L107.5 153.5L113 117.5Z" fill="white" stroke="#E1E1E1"/>
<path d="M55.5 110.5L41 112.5L64.5 166H81.5L107 114.5L95 107L72.5 129L55.5 110.5Z" fill="#5A4DEB"/>
<path d="M34 117C30.6667 122 24.5 136.5 23.5 144.5C22.5 152.5 24.0679 175 27.5679 178" stroke="black" stroke-width="2"/>
<circle cx="31" cy="181" r="6" fill="#D9D9D9"/>
<circle cx="31" cy="181" r="3" fill="#EEE5E5"/>
<path d="M41 112L33 117L36.5 152.5L54 148.5L47 161.5L69.5 177.5L41 112Z" fill="white" stroke="#E1E1E1"/>
<path d="M116.703 180C114.203 184 115.703 184 117.703 183C117.739 183 117.775 182.999 117.811 182.998C117.942 181.999 117.903 180 116.703 180Z" fill="#B4B4B4"/>
<path d="M109.703 180.5C112.103 179.3 113.203 182.5 111.703 183.5C110.203 183.5 110.936 182.584 110.38 182C109.857 181.449 109.509 180.888 109.703 180.5Z" fill="#B4B4B4"/>
<path d="M125.703 159C125.703 166.955 124.121 182.82 117.811 182.998M117.811 182.998C117.775 182.999 117.739 183 117.703 183C115.703 184 114.203 184 116.703 180C117.903 180 117.942 181.999 117.811 182.998ZM110.38 182C109.857 181.449 109.509 180.888 109.703 180.5C112.103 179.3 113.203 182.5 111.703 183.5C110.203 183.5 110.936 182.584 110.38 182ZM110.38 182C107.488 182.5 101.703 179 101.703 161" stroke="#B7B7B7" stroke-width="0.8"/>
<path d="M99.2034 111C103.87 112.5 113.203 118.3 113.203 129.5M113.203 129.5C103.703 131.5 94.2033 137.5 101.703 162.5M113.203 129.5C119.037 129.833 129.703 136.3 125.703 159.5" stroke="black" stroke-width="2"/>
<path d="M46 110.5L53 106L72.5 129.5L95.5 106L104.5 110.5L83.5 143L72.5 129.5L60 142L46 110.5Z" fill="#5991FF"/>
<path d="M43.5 256L37 168.5L104 165L109 253L43.5 256Z" fill="#6A6E9B"/>
<path d="M57.5 171.5V165L86.5 162V169.5L57.5 171.5Z" fill="#D7D7D5"/>
<g filter="url(#filter3_d_1_2)">
<path d="M120 199L123.5 187H145.5C148 197 147 217 145.5 226C139.1 234.8 86.5 233.667 61 232V205L120 199Z" fill="white"/>
</g>
<path d="M41.7308 229.095H57.7308V212.595H54.2308C52.8975 211.095 49.6308 207.895 47.2308 207.095C44.8308 206.295 47.5641 210.761 49.2308 213.095C47.8975 213.261 44.7308 213.595 41.7308 214.095C38.7308 215.595 41.2308 216.595 41.2308 218.595C38.7308 219.095 40.7308 221.095 41.2308 222.095C39.7308 222.095 39.3308 222.695 41.7308 225.095C38.9308 225.095 40.5641 227.761 41.7308 229.095Z" fill="#FCA39D"/>
<path d="M55 210H63V230H57L55 210Z" fill="#5A4DEB"/>
<defs>
<filter id="filter0_d_1_2" x="35" y="7.0376" width="75.5" height="92.5371" filterUnits="userSpaceOnUse" color-interpolation-filters="sRGB">
<feFlood flood-opacity="0" result="BackgroundImageFix"/>
<feColorMatrix in="SourceAlpha" type="matrix" values="0 0 0 0 0 0 0 0 0 0 0 0 0 0 0 0 0 0 127 0" result="hardAlpha"/>
<feOffset dy="-3"/>
<feGaussianBlur stdDeviation="4"/>
<feComposite in2="hardAlpha" operator="out"/>
<feColorMatrix type="matrix" values="0 0 0 0 0 0 0 0 0 0 0 0 0 0 0 0 0 0 0.25 0"/>
<feBlend mode="normal" in2="BackgroundImageFix" result="effect1_dropShadow_1_2"/>
<feBlend mode="normal" in="SourceGraphic" in2="effect1_dropShadow_1_2" result="shape"/>
</filter>
<filter id="filter1_d_1_2" x="36" y="48.4754" width="9.08732" height="16.7281" filterUnits="userSpaceOnUse" color-interpolation-filters="sRGB">
<feFlood flood-opacity="0" result="BackgroundImageFix"/>
<feColorMatrix in="SourceAlpha" type="matrix" values="0 0 0 0 0 0 0 0 0 0 0 0 0 0 0 0 0 0 127 0" result="hardAlpha"/>
<feOffset dy="1"/>
<feGaussianBlur stdDeviation="1"/>
<feComposite in2="hardAlpha" operator="out"/>
<feColorMatrix type="matrix" values="0 0 0 0 0 0 0 0 0 0 0 0 0 0 0 0 0 0 0.25 0"/>
<feBlend mode="normal" in2="BackgroundImageFix" result="effect1_dropShadow_1_2"/>
<feBlend mode="normal" in="SourceGraphic" in2="effect1_dropShadow_1_2" result="shape"/>
</filter>
<filter id="filter2_d_1_2" x="0" y="112" width="150.539" height="170" filterUnits="userSpaceOnUse" color-interpolation-filters="sRGB">
<feFlood flood-opacity="0" result="BackgroundImageFix"/>
<feColorMatrix in="SourceAlpha" type="matrix" values="0 0 0 0 0 0 0 0 0 0 0 0 0 0 0 0 0 0 127 0" result="hardAlpha"/>
<feOffset dy="4"/>
<feGaussianBlur stdDeviation="2"/>
<feComposite in2="hardAlpha" operator="out"/>
<feColorMatrix type="matrix" values="0 0 0 0 0 0 0 0 0 0 0 0 0 0 0 0 0 0 0.25 0"/>
<feBlend mode="normal" in2="BackgroundImageFix" result="effect1_dropShadow_1_2"/>
<feBlend mode="normal" in="SourceGraphic" in2="effect1_dropShadow_1_2" result="shape"/>
</filter>
<filter id="filter3_d_1_2" x="59" y="186" width="90.0228" height="50.1549" filterUnits="userSpaceOnUse" color-interpolation-filters="sRGB">
<feFlood flood-opacity="0" result="BackgroundImageFix"/>
<feColorMatrix in="SourceAlpha" type="matrix" values="0 0 0 0 0 0 0 0 0 0 0 0 0 0 0 0 0 0 127 0" result="hardAlpha"/>
<feOffset dy="1"/>
<feGaussianBlur stdDeviation="1"/>
<feComposite in2="hardAlpha" operator="out"/>
<feColorMatrix type="matrix" values="0 0 0 0 0 0 0 0 0 0 0 0 0 0 0 0 0 0 0.25 0"/>
<feBlend mode="normal" in2="BackgroundImageFix" result="effect1_dropShadow_1_2"/>
<feBlend mode="normal" in="SourceGraphic" in2="effect1_dropShadow_1_2" result="shape"/>
</filter>
</defs>
</svg>
